<?xml version="1.0" encoding="UTF-8"?>
<!DOCTYPE svg PUBLIC "-//W3C//DTD SVG 1.1//EN" "http://www.w3.org/Graphics/SVG/1.1/DTD/svg11.dtd">
<!-- Creator: CorelDRAW X6 -->
<svg xmlns="http://www.w3.org/2000/svg" xml:space="preserve" width="157.562mm" height="56.0609mm" version="1.1" style="shape-rendering:geometricPrecision; text-rendering:geometricPrecision; image-rendering:optimizeQuality; fill-rule:evenodd; clip-rule:evenodd"
viewBox="0 0 14919 5308"
 xmlns:xlink="http://www.w3.org/1999/xlink">
 <defs>
  <style type="text/css">
   <![CDATA[
    .fil0 {fill:#FEFEFE}
   ]]>
  </style>
 </defs>
 <g id="Слой_x0020_1">
  <metadata id="CorelCorpID_0Corel-Layer"/>
  <g id="Слой_1">
   <g>
    <path class="fil0" d="M6579 4996c8,23 8,16 8,16 0,0 -8,-8 -8,-16m0 0c8,23 8,16 8,16 0,0 -8,-8 -8,-16z"/>
    <path class="fil0" d="M6228 4965c8,23 8,16 8,16 0,0 0,-8 -8,-16m0 0c8,23 8,16 8,16 0,0 0,-8 -8,-16z"/>
    <path class="fil0" d="M5822 3726c23,-8 39,-16 47,-31 -8,16 -23,31 -47,31z"/>
    <path class="fil0" d="M6883 4131l0 -171c-405,-16 -670,-226 -670,-585 0,-359 265,-569 670,-585l0 -171 281 0 0 171c405,16 670,226 670,585 0,359 -265,561 -670,585l0 171 -281 0zm0 -413l0 -686c-281,16 -382,171 -382,343 0,171 101,320 382,343m281 0c273,-23 374,-171 374,-343 0,-171 -101,-320 -374,-343l0 686z"/>
    <path class="fil0" d="M8987 4053l0 -702c0,-62 0,-133 8,-187l-631 889 -273 0 0 -1356 288 0 0 702c0,62 0,133 -8,187l631 -889 273 0 0 1356 -288 0z"/>
    <path class="fil0" d="M10117 4077c-164,0 -320,-23 -499,-86l0 -281c179,86 335,109 483,101 148,0 288,-39 288,-179 0,-125 -109,-156 -242,-156l-304 0 0 -257 288 0c125,0 210,-47 210,-140 0,-109 -94,-156 -273,-156 -125,0 -257,23 -421,101l0 -281c156,-62 312,-86 452,-86 320,0 538,117 538,374 0,148 -86,249 -218,296 140,39 273,148 273,351 -16,304 -304,398 -577,398z"/>
    <polygon class="fil0" points="12042,2697 12042,2954 11622,2954 11622,4053 11333,4053 11333,2954 10920,2954 10920,2697 "/>
    <polygon class="fil0" points="13328,2697 13328,2954 12666,2954 12666,3243 13274,3243 13274,3492 12666,3492 12666,3796 13344,3796 13344,4053 12378,4053 12378,2697 "/>
    <polygon class="fil0" points="13578,4053 14069,3352 13609,2697 13952,2697 14248,3141 14544,2697 14887,2697 14428,3352 14919,4053 14576,4053 14248,3554 13921,4053 "/>
    <polygon class="fil0" points="6251,2284 6251,1715 6376,1715 6376,1941 6664,1941 6664,1715 6789,1715 6789,2284 6664,2284 6664,2058 6376,2058 6376,2284 "/>
    <path class="fil0" d="M7280 1699c164,0 312,101 312,304 0,195 -148,304 -312,304 -164,0 -312,-101 -312,-304 0,-203 156,-304 312,-304m0 117c-109,0 -179,70 -179,187 0,109 78,187 179,187 109,0 179,-70 179,-187 0,-117 -70,-187 -179,-187z"/>
    <path class="fil0" d="M7771 2284l0 -577 327 0c117,0 179,62 179,156 0,62 -31,109 -78,133 55,16 101,62 101,133 0,86 -55,156 -187,156l-343 0zm125 -335l171 0c47,0 78,-16 78,-70 0,-55 -39,-70 -78,-70l-171 0 0 140zm0 242l179 0c55,0 94,-16 94,-70 0,-62 -47,-78 -86,-78l-179 0 0 148 -8 0z"/>
    <path class="fil0" d="M8480 2284l0 -577 125 0 0 195 156 0c148,0 226,86 226,195 0,109 -86,195 -226,195l-281 0 0 -8zm133 -101l133 0c78,0 125,-31 125,-94 0,-62 -47,-94 -125,-94l-133 0 0 187zm483 -468l125 0 0 577 -125 0 0 -577z"/>
    <path class="fil0" d="M9439 2284l0 -577 125 0 0 374 304 -374 109 0 0 577 -125 0 0 -374 -304 374 -109 0zm273 -655c-62,0 -125,-16 -171,-47l0 -101c62,39 117,47 171,47 62,0 117,-16 171,-47l0 101c-47,39 -109,47 -171,47z"/>
    <g>
     <path class="fil0" d="M5277 3016l-592 0c-171,974 -1021,1707 -2042,1699 -1138,-8 -2058,-943 -2050,-2081 8,-1138 943,-2058 2081,-2050 1021,8 1855,756 2019,1730l592 8c-164,-1302 -1263,-2315 -2611,-2323 -1465,-8 -2658,1169 -2673,2635 -8,1465 1169,2658 2635,2673 1348,0 2463,-990 2642,-2292z"/>
     <g>
      <path class="fil0" d="M2666 3469l0 717 273 0 0 -740c-39,8 -86,16 -133,23 -55,0 -94,8 -140,0z"/>
      <path class="fil0" d="M2666 1972l0 148 0 0 0 896c47,0 94,-8 133,-8 47,0 94,-16 133,-16l0 -764c444,70 748,257 748,429 0,218 -483,460 -1138,460 -655,0 -1138,-242 -1138,-460 0,-179 351,-382 850,-436 0,0 8,0 8,0 47,0 94,0 133,-8l0 -8 0 0 0 -234 0 0 0 -655 -273 0 0 686c-109,16 -210,39 -304,70l0 0c-398,117 -655,335 -655,592 0,398 592,694 1380,694 0,0 0,0 8,0 0,0 0,0 8,0 86,0 179,-8 257,-16l0 0c171,-16 327,-47 460,-86l0 0c398,-117 655,-335 655,-592 -8,-382 -538,-670 -1263,-694z"/>
     </g>
    </g>
   </g>
  </g>
 </g>
</svg>
