<svg width="5308" height="5308" xmlns="http://www.w3.org/2000/svg">
 <defs>
  <style type="text/css">
   <![CDATA[
    .fil0 {fill:#FEFEFE}
   ]]>
  </style>
 </defs>
 <g>
  <title>background</title>
  <rect fill="none" id="canvas_background" height="5310" width="5310" y="-1" x="-1"/>
 </g>
 <g>
  <title>Layer 1</title>
  <g id="Слой_x0020_1">
   <metadata id="CorelCorpID_0Corel-Layer"/>
   <g id="Слой_1">
    <g id="svg_1">
     <path id="svg_2" d="m6579,4996c8,23 8,16 8,16c0,0 -8,-8 -8,-16m0,0c8,23 8,16 8,16c0,0 -8,-8 -8,-16z" class="fil0"/>
     <path id="svg_3" d="m6228,4965c8,23 8,16 8,16c0,0 0,-8 -8,-16m0,0c8,23 8,16 8,16c0,0 0,-8 -8,-16z" class="fil0"/>
     <path id="svg_4" d="m5822,3726c23,-8 39,-16 47,-31c-8,16 -23,31 -47,31z" class="fil0"/>
     <path id="svg_5" d="m6883,4131l0,-171c-405,-16 -670,-226 -670,-585c0,-359 265,-569 670,-585l0,-171l281,0l0,171c405,16 670,226 670,585c0,359 -265,561 -670,585l0,171l-281,0zm0,-413l0,-686c-281,16 -382,171 -382,343c0,171 101,320 382,343m281,0c273,-23 374,-171 374,-343c0,-171 -101,-320 -374,-343l0,686z" class="fil0"/>
     <path id="svg_6" d="m8987,4053l0,-702c0,-62 0,-133 8,-187l-631,889l-273,0l0,-1356l288,0l0,702c0,62 0,133 -8,187l631,-889l273,0l0,1356l-288,0z" class="fil0"/>
     <path id="svg_7" d="m10117,4077c-164,0 -320,-23 -499,-86l0,-281c179,86 335,109 483,101c148,0 288,-39 288,-179c0,-125 -109,-156 -242,-156l-304,0l0,-257l288,0c125,0 210,-47 210,-140c0,-109 -94,-156 -273,-156c-125,0 -257,23 -421,101l0,-281c156,-62 312,-86 452,-86c320,0 538,117 538,374c0,148 -86,249 -218,296c140,39 273,148 273,351c-16,304 -304,398 -577,398l2,1z" class="fil0"/>
     <polygon id="svg_8" points="12042,2697 12042,2954 11622,2954 11622,4053 11333,4053 11333,2954 10920,2954 10920,2697 " class="fil0"/>
     <polygon id="svg_9" points="13328,2697 13328,2954 12666,2954 12666,3243 13274,3243 13274,3492 12666,3492 12666,3796 13344,3796 13344,4053 12378,4053 12378,2697 " class="fil0"/>
     <polygon id="svg_10" points="13578,4053 14069,3352 13609,2697 13952,2697 14248,3141 14544,2697 14887,2697 14428,3352 14919,4053 14576,4053 14248,3554 13921,4053 " class="fil0"/>
     <polygon id="svg_11" points="6251,2284 6251,1715 6376,1715 6376,1941 6664,1941 6664,1715 6789,1715 6789,2284 6664,2284 6664,2058 6376,2058 6376,2284 " class="fil0"/>
     <path id="svg_12" d="m7280,1699c164,0 312,101 312,304c0,195 -148,304 -312,304c-164,0 -312,-101 -312,-304c0,-203 156,-304 312,-304m0,117c-109,0 -179,70 -179,187c0,109 78,187 179,187c109,0 179,-70 179,-187c0,-117 -70,-187 -179,-187z" class="fil0"/>
     <path id="svg_13" d="m7771,2284l0,-577l327,0c117,0 179,62 179,156c0,62 -31,109 -78,133c55,16 101,62 101,133c0,86 -55,156 -187,156l-343,0l1,-1zm124,-334l171,0c47,0 78,-16 78,-70c0,-55 -39,-70 -78,-70l-171,0l0,140zm0,242l179,0c55,0 94,-16 94,-70c0,-62 -47,-78 -86,-78l-179,0l0,148l-8,0z" class="fil0"/>
     <path id="svg_14" d="m8480,2284l0,-577l125,0l0,195l156,0c148,0 226,86 226,195c0,109 -86,195 -226,195l-281,0l0,-8zm133,-101l133,0c78,0 125,-31 125,-94c0,-62 -47,-94 -125,-94l-133,0l0,187l0,1zm483,-468l125,0l0,577l-125,0l0,-577z" class="fil0"/>
     <path id="svg_15" d="m9439,2284l0,-577l125,0l0,374l304,-374l109,0l0,577l-125,0l0,-374l-304,374l-109,0zm273,-655c-62,0 -125,-16 -171,-47l0,-101c62,39 117,47 171,47c62,0 117,-16 171,-47l0,101c-47,39 -109,47 -171,47z" class="fil0"/>
     <g id="svg_16">
      <path id="svg_17" d="m5277,3016l-592,0c-171,974 -1021,1707 -2042,1699c-1138,-8 -2058,-943 -2050,-2081c8,-1138 943,-2058 2081,-2050c1021,8 1855,756 2019,1730l592,8c-164,-1302 -1263,-2315 -2611,-2323c-1465,-8 -2658,1169 -2673,2635c-8,1465 1169,2658 2635,2673c1348,0 2463,-990 2642,-2292l-1,1z" class="fil0"/>
      <g id="svg_18">
       <path id="svg_19" d="m2666,3469l0,717l273,0l0,-740c-39,8 -86,16 -133,23c-55,0 -94,8 -140,0z" class="fil0"/>
       <path id="svg_20" d="m2666,1972l0,148l0,0l0,896c47,0 94,-8 133,-8c47,0 94,-16 133,-16l0,-764c444,70 748,257 748,429c0,218 -483,460 -1138,460c-655,0 -1138,-242 -1138,-460c0,-179 351,-382 850,-436c0,0 8,0 8,0c47,0 94,0 133,-8l0,-8l0,0l0,-234l0,0l0,-655l-273,0l0,686c-109,16 -210,39 -304,70l0,0c-398,117 -655,335 -655,592c0,398 592,694 1380,694c0,0 0,0 8,0c0,0 0,0 8,0c86,0 179,-8 257,-16l0,0c171,-16 327,-47 460,-86l0,0c398,-117 655,-335 655,-592c-8,-382 -538,-670 -1263,-694l-2,2z" class="fil0"/>
      </g>
     </g>
    </g>
   </g>
  </g>
 </g>
</svg>